<svg width="160" height="130" viewBox="0 0 160 130" fill="none" xmlns="http://www.w3.org/2000/svg">
<path d="M38.987 66.0137L18.4806 30.2762L44.8767 34.2365L55.8941 14.0597L67.9559 39.9265L89.4131 17.4429L89.4245 44.1035L123.23 33.2196L118.018 53.0355L150.805 54.7614L129.297 74.2908L134.578 100.086L112.181 93.0991L99.8485 118.824L85.5914 93.318L66.7185 112.415L54.3656 90.1508L25.0439 90.2259L38.987 66.0137Z" fill="#FF7070" stroke="black" stroke-width="2" stroke-linejoin="round"/>
<path d="M7.71013 72.5635L12.5318 41.2202L19.8101 49.9753L27.6797 40.87L34.1669 44.5159L23.4843 56.705L32.6928 70.2768L24.1484 72.4721L18.579 63.2779L14.9992 72.4616L7.71013 72.5635Z" fill="#FFF176" stroke="black" stroke-width="2" stroke-linejoin="round"/>
<path fill-rule="evenodd" clip-rule="evenodd" d="M44.9131 45.9305L24.9428 71.9745L36.2392 73.743L40.0822 67.8557L47.7908 68.6458L48.152 76.0545L54.6832 76.8984L51.9775 45.6077L44.9131 45.9305ZM45.1895 55.0566L47.7125 54.9413L47.9904 60.6403L42.0638 60.0952L45.1895 55.0566Z" fill="#FFF176"/>
<path d="M24.9428 71.9745L24.1484 71.3647C23.9338 71.6446 23.8832 72.0172 24.0151 72.3452C24.147 72.6731 24.4419 72.9077 24.791 72.9624L24.9428 71.9745ZM44.9131 45.9305L44.8644 44.9317C44.5704 44.9452 44.2975 45.0875 44.1187 45.3207L44.9131 45.9305ZM36.2392 73.743L36.0874 74.7308C36.4757 74.7916 36.8629 74.6196 37.0773 74.2912L36.2392 73.743ZM40.0822 67.8557L40.1812 66.8611C39.8094 66.823 39.448 66.9951 39.2441 67.3075L40.0822 67.8557ZM47.7908 68.6458L48.7897 68.6001C48.7656 68.1053 48.3828 67.7017 47.8898 67.6512L47.7908 68.6458ZM48.152 76.0545L47.1531 76.1001C47.1767 76.585 47.5451 76.9838 48.0268 77.0461L48.152 76.0545ZM54.6832 76.8984L54.558 77.89C54.8578 77.9287 55.1586 77.8299 55.3764 77.6212C55.5942 77.4125 55.7057 77.1163 55.6796 76.8153L54.6832 76.8984ZM51.9775 45.6077L52.9739 45.5246C52.9276 44.9889 52.4659 44.5844 51.9288 44.6089L51.9775 45.6077ZM47.7125 54.9413L48.7115 54.8957C48.6846 54.344 48.2155 53.9173 47.6638 53.9425L47.7125 54.9413ZM45.1895 55.0566L45.1408 54.0578C44.8121 54.0728 44.5124 54.2486 44.3391 54.5278L45.1895 55.0566ZM47.9904 60.6403L47.9018 61.636C48.1898 61.6624 48.4748 61.5631 48.6833 61.3634C48.8918 61.1638 49.0034 60.8834 48.9894 60.5947L47.9904 60.6403ZM42.0638 60.0952L41.2134 59.5663C41.0307 59.8607 41.0141 60.2291 41.1693 60.5398C41.3246 60.8505 41.6295 61.059 41.9751 61.0908L42.0638 60.0952ZM25.7373 72.5844L45.7076 46.5404L44.1187 45.3207L24.1484 71.3647L25.7373 72.5844ZM36.391 72.7552L25.0946 70.9867L24.791 72.9624L36.0874 74.7308L36.391 72.7552ZM39.2441 67.3075L35.4011 73.1948L37.0773 74.2912L40.9202 68.4039L39.2441 67.3075ZM47.8898 67.6512L40.1812 66.8611L39.9831 68.8504L47.6917 69.6404L47.8898 67.6512ZM49.151 76.0088L48.7897 68.6001L46.7918 68.6914L47.1531 76.1001L49.151 76.0088ZM54.8084 75.9068L48.2772 75.0629L48.0268 77.0461L54.558 77.89L54.8084 75.9068ZM50.981 45.6908L53.6868 76.9815L55.6796 76.8153L52.9739 45.5246L50.981 45.6908ZM44.9618 46.9294L52.0262 46.6065L51.9288 44.6089L44.8644 44.9317L44.9618 46.9294ZM47.6638 53.9425L45.1408 54.0578L45.2382 56.0554L47.7612 55.9401L47.6638 53.9425ZM48.9894 60.5947L48.7115 54.8957L46.7136 54.987L46.9914 60.686L48.9894 60.5947ZM41.9751 61.0908L47.9018 61.636L48.079 59.6447L42.1524 59.0995L41.9751 61.0908ZM44.3391 54.5278L41.2134 59.5663L42.9142 60.624L46.0399 55.5855L44.3391 54.5278Z" fill="black"/>
<path fill-rule="evenodd" clip-rule="evenodd" d="M54.9011 79.2549L60.9204 47.6292L70.899 46.4566L80.5 59L71.1996 64.7202L78 71L72.5 77.5L64.2004 79.8329L54.9011 79.2549ZM67.8512 72.3441L63.1139 71.9895L64.6577 67.3496L68.8619 68.8709L67.8512 72.3441ZM67.0371 54.3663L65.306 59.1711L71.131 58.8968L67.0371 54.3663Z" fill="#FFF176"/>
<path d="M60.9204 47.6292L60.7956 46.637C60.3647 46.6877 60.0178 47.0101 59.9369 47.4353L60.9204 47.6292ZM54.9011 79.2549L53.9176 79.061C53.8638 79.3435 53.9351 79.6365 54.1131 79.8647C54.2911 80.0928 54.5586 80.234 54.8468 80.2519L54.9011 79.2549ZM70.899 46.4566L71.6928 45.8542C71.4763 45.5713 71.1267 45.423 70.7742 45.4644L70.899 46.4566ZM80.5 59L81.0301 59.8516C81.2696 59.7042 81.4349 59.4623 81.4851 59.1854C81.5353 58.9085 81.4658 58.6224 81.2937 58.3976L80.5 59ZM71.1996 64.7202L70.6695 63.8687C70.4042 64.0318 70.2316 64.3099 70.2028 64.6204C70.174 64.9309 70.2924 65.2382 70.5228 65.451L71.1996 64.7202ZM78 71L78.767 71.648C79.1111 71.2413 79.0714 70.6337 78.6767 70.2693L78 71ZM72.5 77.5L72.7784 78.4617C72.9692 78.4081 73.1393 78.2989 73.267 78.148L72.5 77.5ZM64.2004 79.8329L64.1461 80.8299C64.2584 80.8369 64.3709 80.8249 64.4789 80.7946L64.2004 79.8329ZM63.1139 71.9895L62.1636 71.6679C62.0663 71.9605 62.1105 72.2826 62.2832 72.5403C62.456 72.7981 62.738 72.9625 63.0469 72.9856L63.1139 71.9895ZM67.8512 72.3441L67.7842 73.3403C68.2537 73.3755 68.6818 73.0797 68.8127 72.6297L67.8512 72.3441ZM64.6577 67.3496L64.9923 66.4107C64.7387 66.3189 64.4595 66.3327 64.2177 66.4488C63.9759 66.565 63.792 66.7737 63.7074 67.028L64.6577 67.3496ZM68.8619 68.8709L69.8234 69.1565C69.9709 68.6497 69.696 68.1129 69.1966 67.9321L68.8619 68.8709ZM65.306 59.1711L64.3637 58.8265C64.2505 59.1407 64.303 59.492 64.5035 59.7619C64.7041 60.0319 65.0261 60.1847 65.3611 60.1689L65.306 59.1711ZM67.0371 54.3663L67.7782 53.7006C67.5418 53.439 67.1864 53.3193 66.8417 53.3851C66.4969 53.4508 66.2135 53.6925 66.0948 54.0217L67.0371 54.3663ZM71.131 58.8968L71.1861 59.8947C71.5717 59.8765 71.9106 59.6386 72.0572 59.2832C72.2037 58.9278 72.1317 58.5184 71.872 58.2311L71.131 58.8968ZM59.9369 47.4353L53.9176 79.061L55.8846 79.4488L61.9039 47.8231L59.9369 47.4353ZM70.7742 45.4644L60.7956 46.637L61.0452 48.6213L71.0238 47.4487L70.7742 45.4644ZM81.2937 58.3976L71.6928 45.8542L70.1053 47.059L79.7063 59.6024L81.2937 58.3976ZM71.7297 65.5718L81.0301 59.8516L79.9699 58.1484L70.6695 63.8687L71.7297 65.5718ZM78.6767 70.2693L71.8763 63.9895L70.5228 65.451L77.3233 71.7307L78.6767 70.2693ZM73.267 78.148L78.767 71.648L77.233 70.352L71.733 76.852L73.267 78.148ZM64.4789 80.7946L72.7784 78.4617L72.2215 76.5383L63.922 78.8711L64.4789 80.7946ZM54.8468 80.2519L64.1461 80.8299L64.2548 78.8358L54.9555 78.2578L54.8468 80.2519ZM63.0469 72.9856L67.7842 73.3403L67.9183 71.348L63.1809 70.9933L63.0469 72.9856ZM63.7074 67.028L62.1636 71.6679L64.0642 72.311L65.608 67.6711L63.7074 67.028ZM69.1966 67.9321L64.9923 66.4107L64.323 68.2884L68.5273 69.8098L69.1966 67.9321ZM68.8127 72.6297L69.8234 69.1565L67.9004 68.5854L66.8898 72.0586L68.8127 72.6297ZM66.2483 59.5156L67.9794 54.7109L66.0948 54.0217L64.3637 58.8265L66.2483 59.5156ZM71.0759 57.899L65.2509 58.1732L65.3611 60.1689L71.1861 59.8947L71.0759 57.899ZM66.2961 55.032L70.39 59.5626L71.872 58.2311L67.7782 53.7006L66.2961 55.032Z" fill="black"/>
<path fill-rule="evenodd" clip-rule="evenodd" d="M79.9188 62.0371L88.5547 57.6443L95.7302 59.6011L100.69 64.515L99.0298 78.87L91.5991 83.779L83.946 84.1287L75.8206 74.7901L79.9188 62.0371ZM83.3902 72.7307L88.883 76.4779L93.3703 71.7035L91.3263 66.0852L85.5227 68.0639L83.3902 72.7307Z" fill="#FFF176"/>
<path d="M88.5547 57.6443L88.8152 56.6798C88.5754 56.6144 88.3201 56.6404 88.099 56.7529L88.5547 57.6443ZM79.9188 62.0371L79.4631 61.1457C79.2264 61.2661 79.0478 61.4759 78.9665 61.7287L79.9188 62.0371ZM95.7302 59.6011L96.4331 58.892C96.3101 58.7701 96.1576 58.6821 95.9907 58.6365L95.7302 59.6011ZM100.69 64.515L101.683 64.6328C101.719 64.3275 101.612 64.0226 101.393 63.8059L100.69 64.515ZM99.0298 78.87L99.5829 79.7047C99.8284 79.5426 99.9895 79.2803 100.023 78.9879L99.0298 78.87ZM91.5991 83.779L91.6478 84.7778C91.8278 84.7695 92.0021 84.7128 92.1522 84.6136L91.5991 83.779ZM83.946 84.1287L83.1923 84.7836C83.3934 85.0147 83.6891 85.1415 83.9947 85.1275L83.946 84.1287ZM75.8206 74.7901L74.8683 74.4817C74.7612 74.8149 74.8366 75.1803 75.0669 75.445L75.8206 74.7901ZM88.883 76.4779L88.321 77.3032C88.7282 77.581 89.2763 77.5219 89.6129 77.1637L88.883 76.4779ZM83.3902 72.7307L82.4803 72.313C82.278 72.7558 82.4249 73.2809 82.8282 73.556L83.3902 72.7307ZM93.3703 71.7035L94.1001 72.3893C94.3579 72.1151 94.439 71.7188 94.31 71.3643L93.3703 71.7035ZM91.3263 66.0852L92.2661 65.746C92.0795 65.233 91.5166 64.9629 91.0009 65.1388L91.3263 66.0852ZM85.5227 68.0639L85.1973 67.1175C84.9379 67.2059 84.7266 67.397 84.6128 67.6462L85.5227 68.0639ZM88.099 56.7529L79.4631 61.1457L80.3745 62.9285L89.0104 58.5357L88.099 56.7529ZM95.9907 58.6365L88.8152 56.6798L88.2942 58.6089L95.4697 60.5656L95.9907 58.6365ZM101.393 63.8059L96.4331 58.892L95.0273 60.3102L99.9869 65.2241L101.393 63.8059ZM100.023 78.9879L101.683 64.6328L99.6963 64.3972L98.0362 78.7522L100.023 78.9879ZM92.1522 84.6136L99.5829 79.7047L98.4766 78.0354L91.0459 82.9443L92.1522 84.6136ZM83.9947 85.1275L91.6478 84.7778L91.5504 82.7801L83.8973 83.1299L83.9947 85.1275ZM75.0669 75.445L83.1923 84.7836L84.6998 83.4738L76.5744 74.1352L75.0669 75.445ZM78.9665 61.7287L74.8683 74.4817L76.7729 75.0986L80.8711 62.3456L78.9665 61.7287ZM89.445 75.6525L83.9523 71.9054L82.8282 73.556L88.321 77.3032L89.445 75.6525ZM92.6404 71.0177L88.1531 75.7921L89.6129 77.1637L94.1001 72.3893L92.6404 71.0177ZM90.3865 66.4244L92.4305 72.0427L94.31 71.3643L92.2661 65.746L90.3865 66.4244ZM85.8481 69.0103L91.6517 67.0316L91.0009 65.1388L85.1973 67.1175L85.8481 69.0103ZM84.3002 73.1484L86.4326 68.4816L84.6128 67.6462L82.4803 72.313L84.3002 73.1484Z" fill="black"/>
<path fill-rule="evenodd" clip-rule="evenodd" d="M125.65 75.889L120.02 84.2454L112.361 86.0172L105.173 83.957L99.069 69.8888L103.312 61.6571L110.185 57.5198L122.647 62.0832L125.65 75.889ZM116.76 67.7559L109.7 67.0375L108.101 73.678L112.975 77.8413L117.275 73.1234L116.76 67.7559Z" fill="#FFF176"/>
<path d="M120.02 84.2454L120.266 85.2057C120.515 85.1484 120.73 85.0014 120.87 84.7943L120.02 84.2454ZM125.65 75.889L126.499 76.4378C126.645 76.22 126.696 75.9533 126.64 75.6963L125.65 75.889ZM112.361 86.0172L112.087 86.9637C112.257 87.0124 112.436 87.0172 112.607 86.9776L112.361 86.0172ZM105.173 83.957L104.241 84.3313C104.361 84.6082 104.603 84.8187 104.899 84.9035L105.173 83.957ZM99.069 69.8888L98.1626 69.4369C98.0302 69.6938 98.0207 69.9957 98.1367 70.2631L99.069 69.8888ZM103.312 61.6571L102.771 60.8157C102.615 60.91 102.488 61.0447 102.405 61.2052L103.312 61.6571ZM110.185 57.5198L110.531 56.5965C110.236 56.4888 109.909 56.519 109.644 56.6784L110.185 57.5198ZM122.647 62.0832L123.637 61.8905C123.565 61.5565 123.321 61.2803 122.992 61.16L122.647 62.0832ZM109.7 67.0375L109.793 66.056C109.29 66.0048 108.829 66.3224 108.714 66.8004L109.7 67.0375ZM116.76 67.7559L117.768 67.6766C117.723 67.203 117.338 66.8238 116.852 66.7744L116.76 67.7559ZM108.101 73.678L107.115 73.4409C107.029 73.7971 107.154 74.1729 107.439 74.4164L108.101 73.678ZM112.975 77.8413L112.312 78.5797C112.733 78.9393 113.369 78.9046 113.736 78.5019L112.975 77.8413ZM117.275 73.1234L118.036 73.784C118.22 73.5823 118.31 73.3146 118.284 73.044L117.275 73.1234ZM120.87 84.7943L126.499 76.4378L124.8 75.3401L119.171 83.6966L120.87 84.7943ZM112.607 86.9776L120.266 85.2057L119.774 83.2851L112.115 85.0569L112.607 86.9776ZM104.899 84.9035L112.087 86.9637L112.636 85.0708L105.447 83.0105L104.899 84.9035ZM98.1367 70.2631L104.241 84.3313L106.105 83.5827L100.001 69.5145L98.1367 70.2631ZM102.405 61.2052L98.1626 69.4369L99.9754 70.3407L104.218 62.1089L102.405 61.2052ZM109.644 56.6784L102.771 60.8157L103.852 62.4984L110.725 58.3611L109.644 56.6784ZM122.992 61.16L110.531 56.5965L109.839 58.443L122.301 63.0064L122.992 61.16ZM126.64 75.6963L123.637 61.8905L121.656 62.2758L124.659 76.0816L126.64 75.6963ZM109.608 68.019L116.667 68.7374L116.852 66.7744L109.793 66.056L109.608 68.019ZM109.087 73.9152L110.687 67.2747L108.714 66.8004L107.115 73.4409L109.087 73.9152ZM113.637 77.103L108.763 72.9397L107.439 74.4164L112.312 78.5797L113.637 77.103ZM116.514 72.4628L112.213 77.1808L113.736 78.5019L118.036 73.784L116.514 72.4628ZM115.751 67.8352L116.267 73.2027L118.284 73.044L117.768 67.6766L115.751 67.8352Z" fill="black"/>
<path d="M131.799 59.0952L120.075 86.9692L127.788 87.3177L134.323 79.3083L137.77 86.8615L144.271 78.1527L146.353 89.2732L154.799 88.8873L154.305 62.9736L148.828 61.1209L137.924 74.2369L131.799 59.0952Z" fill="#FFF176" stroke="black" stroke-width="2" stroke-linejoin="round"/>
</svg>
