<?xml version="1.0" encoding="UTF-8" standalone="no"?>
<!DOCTYPE svg PUBLIC "-//W3C//DTD SVG 1.1//EN" "http://www.w3.org/Graphics/SVG/1.1/DTD/svg11.dtd">
<svg width="100%" height="100%" viewBox="0 0 800 500" version="1.1" xmlns="http://www.w3.org/2000/svg" xmlns:xlink="http://www.w3.org/1999/xlink" xml:space="preserve" xmlns:serif="http://www.serif.com/" style="fill-rule:evenodd;clip-rule:evenodd;stroke-linecap:round;stroke-linejoin:round;stroke-miterlimit:1.5;">
    <g id="logo" transform="matrix(0.863137,0,0,0.966406,5.29584,-31.9085)">
        <rect x="-6.136" y="33.018" width="926.851" height="517.381" style="fill:none;"/>
        <clipPath id="_clip1">
            <rect x="-6.136" y="33.018" width="926.851" height="517.381"/>
        </clipPath>
        <g clip-path="url(#_clip1)">
            <g id="blast" transform="matrix(1.48137,0,0,1.26376,-152.162,-77.4947)">
                <path d="M275.239,164.133L336.219,99.155L370.491,198.838L480.445,130.4L455.686,223.597L619.157,201.758L575.804,271.06L720.895,292.141L593.965,351.819L619.157,445.016L525.527,403.5L450.604,489.559L408.762,386.635L314.812,448.368L277.686,361.93L146.041,347.828L224.219,271.551L161.393,136.993L275.239,164.133Z" style="fill:rgb(228,42,0);stroke:black;stroke-width:7.2px;"/>
            </g>
        </g>
    </g>
</svg>
