<?xml version="1.0" encoding="UTF-8" standalone="no"?>
<!DOCTYPE svg PUBLIC "-//W3C//DTD SVG 1.1//EN" "http://www.w3.org/Graphics/SVG/1.1/DTD/svg11.dtd">
<svg width="100%" height="100%" viewBox="0 0 800 500" version="1.1" xmlns="http://www.w3.org/2000/svg" xmlns:xlink="http://www.w3.org/1999/xlink" xml:space="preserve" xmlns:serif="http://www.serif.com/" style="fill-rule:evenodd;clip-rule:evenodd;stroke-linecap:round;stroke-linejoin:round;stroke-miterlimit:1.5;">
    <g id="logo" transform="matrix(0.863137,0,0,0.966406,5.29584,-31.9085)">
        <rect x="-6.136" y="33.018" width="926.851" height="517.381" style="fill:none;"/>
        <g id="kaboom" transform="matrix(1.21874,0,0,1.0885,-173.454,-76.8073)">
            <g transform="matrix(1.3694,0.124186,-0.113256,1.24886,29.8112,-38.9843)">
                <path d="M140.519,249.01L157.765,275.113L183.203,280.912L166.58,239.959L206.824,210.627L196.299,194.067L193.215,189.447L150.45,215.07L165.04,184.246L141.094,175.564L103.985,259.817L131.805,264.922L140.519,249.01Z" style="fill:rgb(253,244,3);"/>
                <path d="M140.762,255.193L155.245,277.114C155.7,277.802 156.373,278.28 157.132,278.453L182.57,284.252C183.713,284.513 184.893,284.05 185.625,283.053C186.358,282.057 186.52,280.695 186.046,279.525L170.491,241.205C170.491,241.205 208.546,213.468 208.546,213.468C209.243,212.96 209.724,212.165 209.88,211.264C210.037,210.362 209.855,209.43 209.376,208.677L198.851,192.117C198.837,192.095 198.823,192.074 198.809,192.053L195.726,187.432C194.805,186.051 193.093,185.632 191.723,186.453L157.911,206.712C157.911,206.712 167.801,185.818 167.801,185.818C168.221,184.931 168.265,183.886 167.922,182.961C167.578,182.035 166.882,181.321 166.017,181.007L142.071,172.325C140.589,171.788 138.972,172.539 138.293,174.081L101.184,258.334C100.758,259.301 100.772,260.431 101.222,261.385C101.672,262.339 102.506,263.005 103.472,263.182L131.291,268.287C132.552,268.518 133.814,267.881 134.472,266.679L140.762,255.193ZM143.039,247.009C142.426,246.081 141.429,245.553 140.385,245.602C139.342,245.652 138.39,246.272 137.852,247.254L130.228,261.174C130.228,261.174 108.591,257.204 108.591,257.204C108.591,257.204 142.709,179.743 142.709,179.743C142.709,179.743 160.597,186.228 160.597,186.228C160.597,186.228 147.689,213.498 147.689,213.498C147.059,214.83 147.296,216.458 148.274,217.508C149.252,218.557 150.741,218.783 151.942,218.063L192.314,193.874C192.314,193.874 193.767,196.05 193.767,196.05C193.767,196.05 202.453,209.717 202.453,209.717C202.453,209.717 164.858,237.118 164.858,237.118C163.594,238.039 163.121,239.826 163.738,241.346L177.892,276.217C177.892,276.217 159.578,272.042 159.578,272.042C159.578,272.042 143.039,247.009 143.039,247.009Z"/>
            </g>
            <g transform="matrix(0.999798,-0.0201105,0.0201105,0.999798,69.2402,20.3316)">
                <path d="M156.954,305.715L214.777,222.116L241.524,227.43L252.932,343.124L223.797,329.574L218.422,302.914L204.181,297.666L181.846,316.879L156.954,305.715ZM219.758,258.966L208.361,274.839L223.969,282.111L219.758,258.966Z" style="fill:rgb(253,244,3);"/>
                <path d="M153.436,303.282C152.713,304.327 152.492,305.64 152.834,306.865C153.175,308.089 154.044,309.098 155.204,309.619L180.095,320.782C181.609,321.461 183.378,321.203 184.636,320.122L205.063,302.55C205.063,302.55 214.701,306.102 214.701,306.102C214.701,306.102 219.603,330.419 219.603,330.419C219.872,331.753 220.759,332.879 221.993,333.453L251.128,347.003C252.521,347.65 254.154,347.502 255.407,346.613C256.66,345.725 257.34,344.232 257.189,342.704L245.781,227.011C245.596,225.135 244.206,223.602 242.357,223.235L215.611,217.92C213.938,217.588 212.228,218.28 211.259,219.683L153.436,303.282ZM163.399,303.917L216.698,226.859C216.698,226.859 237.578,231.008 237.578,231.008C237.578,231.008 247.939,336.084 247.939,336.084C247.939,336.084 227.562,326.608 227.562,326.608C227.562,326.608 222.616,302.069 222.616,302.069C222.322,300.613 221.295,299.413 219.901,298.9L205.66,293.652C204.203,293.115 202.569,293.411 201.391,294.423L181.117,311.863L163.399,303.917ZM223.967,258.2C223.66,256.511 222.372,255.17 220.698,254.793C219.023,254.416 217.285,255.077 216.283,256.471L204.886,272.344C204.143,273.379 203.9,274.691 204.222,275.923C204.545,277.155 205.4,278.179 206.554,278.717L222.163,285.989C223.612,286.664 225.317,286.474 226.583,285.497C227.849,284.52 228.464,282.918 228.178,281.345L223.967,258.2ZM217.354,269.649L218.28,274.741C218.28,274.741 214.846,273.142 214.846,273.142L217.354,269.649Z"/>
            </g>
            <g transform="matrix(0.999798,-0.0201105,0.0201105,0.999798,37.4241,16.0038)">
                <path d="M290.024,241.063L274.949,345.91L324,357.053L356.333,349.519L371.75,321.803L332.877,301.382L365.586,292.93L376.769,263.572L338.126,244.472L290.024,241.063ZM307.379,316.186L305.123,328.842L319.501,332.282L325.397,325.016L320.763,317.469L307.379,316.186ZM316.773,268.154L314.612,281.817L328.306,281.16L330.303,268.53L316.773,268.154Z" style="fill:rgb(253,244,3);"/>
                <path d="M290.327,236.796C288.089,236.637 286.109,238.234 285.79,240.454L270.715,345.301C270.398,347.508 271.828,349.588 274.001,350.082L323.052,361.225C323.683,361.368 324.339,361.367 324.97,361.22L357.304,353.686C358.48,353.412 359.485,352.654 360.072,351.599L375.489,323.882C376.049,322.875 376.179,321.685 375.85,320.581C375.521,319.476 374.76,318.552 373.74,318.016L344.68,302.75C344.68,302.75 366.656,297.071 366.656,297.071C367.998,296.724 369.089,295.748 369.583,294.452L380.767,265.094C381.552,263.034 380.642,260.714 378.665,259.737L340.022,240.637C339.524,240.391 338.983,240.245 338.429,240.205L290.327,236.796ZM293.692,245.611L336.985,248.68C336.985,248.68 371.387,265.683 371.387,265.683C371.387,265.683 362.375,289.341 362.375,289.341C362.375,289.341 331.807,297.24 331.807,297.24C330.094,297.682 328.831,299.133 328.627,300.889C328.424,302.646 329.322,304.346 330.887,305.169L365.882,323.552C365.882,323.552 353.516,345.783 353.516,345.783C353.516,345.783 323.987,352.664 323.987,352.664C323.987,352.664 279.745,342.613 279.745,342.613C279.745,342.613 293.692,245.611 293.692,245.611L293.692,245.611ZM307.787,311.928C305.569,311.715 303.559,313.241 303.168,315.435L300.912,328.091C300.514,330.321 301.924,332.475 304.127,333.002L318.505,336.443C320.106,336.826 321.785,336.256 322.822,334.978L328.719,327.712C329.863,326.302 329.992,324.325 329.043,322.778L324.408,315.23C323.706,314.086 322.507,313.338 321.171,313.21L307.787,311.928ZM310.898,320.821L318.233,321.524C318.233,321.524 320.166,324.673 320.166,324.673C320.166,324.673 317.876,327.495 317.876,327.495C317.876,327.495 310.042,325.62 310.042,325.62L310.898,320.821ZM316.892,263.878C314.743,263.818 312.884,265.362 312.548,267.486L310.387,281.149C310.186,282.421 310.568,283.715 311.427,284.673C312.287,285.632 313.532,286.152 314.817,286.09L328.511,285.433C330.536,285.336 332.215,283.831 332.532,281.828L334.528,269.198C334.72,267.982 334.38,266.743 333.593,265.797C332.807,264.85 331.651,264.288 330.422,264.254L316.892,263.878ZM320.411,272.534L325.317,272.671C325.317,272.671 324.624,277.054 324.624,277.054C324.624,277.054 319.659,277.293 319.659,277.293L320.411,272.534Z"/>
            </g>
            <g transform="matrix(0.999798,-0.0201105,0.0201105,0.999798,-6.2681,8.18212)">
                <path d="M407.048,291.271L389.915,345.535L431.566,378.519L468.778,361.093L475.965,290.839L445.689,270.409L407.048,291.271ZM437.403,310.353L426.139,323.114L434.273,337.284L445.525,331.817L449.833,319.832L437.403,310.353Z" style="fill:rgb(253,244,3);"/>
                <path d="M405.015,287.506C404.037,288.034 403.303,288.922 402.968,289.983L385.836,344.247C385.301,345.939 385.868,347.786 387.259,348.888L428.911,381.873C430.181,382.879 431.912,383.081 433.38,382.393L470.592,364.967C471.954,364.33 472.881,363.024 473.034,361.529L480.22,291.274C480.381,289.705 479.665,288.175 478.357,287.293L448.082,266.863C446.762,265.973 445.057,265.889 443.657,266.645L405.015,287.506ZM410.605,294.211L445.443,275.404C445.443,275.404 471.448,292.952 471.448,292.952C471.448,292.952 464.769,358.247 464.769,358.247C464.769,358.247 432.148,373.523 432.148,373.523C432.148,373.523 394.882,344.011 394.882,344.011L410.605,294.211ZM439.997,306.951C438.212,305.591 435.68,305.84 434.195,307.522L422.932,320.283C421.718,321.658 421.516,323.653 422.429,325.244L430.563,339.414C431.682,341.364 434.12,342.115 436.143,341.132L447.395,335.664C448.399,335.176 449.173,334.315 449.551,333.264L453.859,321.279C454.49,319.523 453.911,317.561 452.427,316.43L439.997,306.951ZM437.975,316.169L444.748,321.333C444.748,321.333 442.089,328.73 442.089,328.73C442.089,328.73 435.995,331.691 435.995,331.691C435.995,331.691 431.376,323.645 431.376,323.645L437.975,316.169Z"/>
            </g>
            <g transform="matrix(0.999798,-0.0201105,0.0201105,0.999798,-43.408,12.7262)">
                <path d="M497.418,334.154L503.08,375.34L539.772,391.338L565.792,380.497L583.069,321.86L550.361,289.571L510.458,287.849L497.418,334.154ZM537.439,326.038L527.611,337.446L536.528,351.025L547.952,345.469L549.869,333.822L537.439,326.038Z" style="fill:rgb(253,244,3);"/>
                <path d="M493.3,332.995C493.141,333.561 493.1,334.154 493.18,334.737L498.842,375.922C499.045,377.4 500.003,378.665 501.37,379.261L538.062,395.259C539.13,395.725 540.342,395.734 541.417,395.286L567.437,384.445C568.628,383.949 569.531,382.943 569.895,381.706L587.173,323.069C587.618,321.557 587.196,319.923 586.075,318.816L553.366,286.527C552.611,285.781 551.606,285.343 550.546,285.297L510.642,283.575C508.66,283.49 506.878,284.779 506.34,286.69L493.3,332.995ZM501.777,334.455L513.657,292.269C513.657,292.269 548.529,293.774 548.529,293.774C548.529,293.774 578.243,323.106 578.243,323.106C578.243,323.106 562.265,377.332 562.265,377.332C562.265,377.332 539.81,386.687 539.81,386.687C539.81,386.687 506.991,372.378 506.991,372.378L501.777,334.455ZM539.709,322.412C537.918,321.291 535.577,321.645 534.198,323.246L524.37,334.654C523.124,336.101 522.987,338.199 524.035,339.795L532.953,353.373C534.133,355.171 536.465,355.813 538.4,354.872L549.823,349.316C551.071,348.709 551.948,347.533 552.173,346.164L554.09,334.517C554.37,332.815 553.601,331.112 552.139,330.197L539.709,322.412ZM538.282,331.613L545.185,335.937C545.185,335.937 544.09,342.59 544.09,342.59C544.09,342.59 538.04,345.533 538.04,345.533C538.04,345.533 532.957,337.794 532.957,337.794L538.282,331.613Z"/>
            </g>
            <g transform="matrix(0.987913,-0.155007,0.155007,0.987913,-165.734,49.4713)">
                <path d="M647.869,462.468L679.855,430.108L692.463,481.582L723.14,448.3L728.224,502.625L763.124,505.672L763.489,417.224L739.738,407.882L714.246,423.805L697.106,391.367L668.771,381.093L616.825,445.671L646.594,462.817" style="fill:rgb(253,244,3);"/>
                <path d="M648.345,466.718C649.285,466.614 650.196,466.199 650.911,465.475L677.52,438.555C677.52,438.555 688.308,482.599 688.308,482.599C688.682,484.13 689.869,485.331 691.395,485.724C692.921,486.118 694.54,485.64 695.608,484.481L719.775,458.261C719.775,458.261 723.965,503.023 723.965,503.023C724.157,505.081 725.793,506.707 727.852,506.886L762.752,509.934C763.943,510.038 765.124,509.638 766.008,508.832C766.891,508.025 767.397,506.886 767.402,505.69L767.767,417.242C767.775,415.477 766.697,413.889 765.055,413.243L741.304,403.901C740.043,403.405 738.621,403.536 737.472,404.254L715.88,417.741C715.88,417.741 700.888,389.368 700.888,389.368C700.391,388.428 699.563,387.707 698.564,387.345L670.23,377.072C668.51,376.448 666.585,376.987 665.438,378.412L613.491,442.989C612.708,443.963 612.39,445.231 612.62,446.459C612.85,447.688 613.607,448.754 614.69,449.378L644.459,466.524C645.693,467.235 647.137,467.26 648.345,466.718ZM646.463,457.805L676.813,427.1C677.902,425.999 679.502,425.572 680.995,425.984C682.488,426.397 683.642,427.585 684.01,429.09C684.01,429.09 694.721,472.82 694.721,472.82L719.994,445.4C721.139,444.158 722.908,443.706 724.508,444.247C726.109,444.787 727.241,446.219 727.399,447.901C727.399,447.901 732.15,498.674 732.15,498.674C732.15,498.674 758.865,501.006 758.865,501.006C758.865,501.006 759.2,420.134 759.2,420.134C759.2,420.134 740.177,412.652 740.177,412.652L716.512,427.433C715.504,428.062 714.28,428.244 713.133,427.935C711.986,427.626 711.019,426.854 710.463,425.803C710.463,425.803 694.095,394.825 694.095,394.825C694.095,394.825 670.188,386.157 670.188,386.157C670.188,386.157 623.29,444.458 623.29,444.458L646.463,457.805Z"/>
            </g>
            <g transform="matrix(0.83858,0,0,0.718241,139.492,145.042)">
                <path d="M614.82,375.358L598.893,409.791L639.227,418.222L648.103,374.767L614.82,375.358Z" style="fill:rgb(253,244,3);stroke:black;stroke-width:10.96px;"/>
            </g>
            <g transform="matrix(0.937661,0,0,0.935506,99.1826,46.4193)">
                <path d="M694.486,341.886L731.541,344.067L701.962,447.831L669.266,457.282L623.808,443.833L623.645,398.153L653.542,402.417L656.15,421.231L674.973,420.558L694.486,341.886Z" style="fill:rgb(253,244,3);stroke:black;stroke-width:9.13px;"/>
            </g>
            <g transform="matrix(1.19225,0,0,0.934825,-95.3588,35.5054)">
                <path d="M780.859,366.344L733.416,378.542L721.943,414.083L745.485,448.812L742.89,465.414L706.369,468.099L706.209,490.567L766.862,495.134L783.602,473.464L781.687,442.493L755.359,412.465L784.189,397.057L780.859,366.344Z" style="fill:rgb(253,244,3);stroke:black;stroke-width:7.99px;"/>
            </g>
        </g>
    </g>
</svg>
