<svg width="240" height="195" viewBox="0 0 240 195" fill="none" xmlns="http://www.w3.org/2000/svg">
<path d="M58.4805 99.0206L27.7209 45.4143L67.3151 51.3548L83.8412 21.0896L101.934 59.8898L134.12 26.1644L134.137 66.1553L184.845 49.8294L177.027 79.5532L226.207 82.1421L193.946 111.436L201.866 150.129L168.271 139.649L149.773 178.236L128.387 139.977L100.078 168.622L81.5484 135.226L37.5659 135.339L58.4805 99.0206Z" fill="#FF7070" stroke="black" stroke-width="4" stroke-linejoin="round"/>
<path d="M11.5652 108.845L18.7978 61.8303L29.7152 74.963L41.5195 61.3051L51.2504 66.7738L35.2265 85.0576L49.0392 105.415L36.2226 108.708L27.8685 94.9169L22.4988 108.692L11.5652 108.845Z" fill="#FFF176" stroke="black" stroke-width="4" stroke-linejoin="round"/>
<path fill-rule="evenodd" clip-rule="evenodd" d="M63.75 68.4115L37.4143 107.962L54.3588 110.615L60.1232 101.784L69.75 102.75L70.5 114L82.0248 115.348L79.5 64.5L63.75 68.4115ZM67.7844 82.5849L71.5689 82.412L71.9857 90.9604L63.0958 90.1427L67.7844 82.5849Z" fill="#FFF176"/>
<path d="M37.4143 107.962L35.7481 106.85C35.3703 107.418 35.3087 108.139 35.5846 108.764C35.8605 109.39 36.4359 109.832 37.1107 109.937L37.4143 107.962ZM63.75 68.4115L63.2622 66.4707C62.7794 66.5906 62.3593 66.8863 62.0839 67.2999L63.75 68.4115ZM54.3588 110.615L54.0552 112.59C54.8317 112.712 55.6062 112.368 56.0349 111.711L54.3588 110.615ZM60.1232 101.784L60.3171 99.7939C59.5749 99.7194 58.8541 100.064 58.4471 100.687L60.1232 101.784ZM69.75 102.75L71.7458 102.623C71.6807 101.646 70.9182 100.858 69.9438 100.76L69.75 102.75ZM70.5 114L68.5041 114.127C68.5684 115.091 69.3132 115.874 70.2736 115.986L70.5 114ZM82.0248 115.348L81.7984 117.334C82.3819 117.402 82.9651 117.21 83.3934 116.81C83.8217 116.41 84.0518 115.841 84.0227 115.254L82.0248 115.348ZM79.5 64.5L81.4978 64.4069C81.4681 63.8087 81.1718 63.2544 80.6904 62.8966C80.209 62.5387 79.5931 62.4149 79.0122 62.5592L79.5 64.5ZM71.5689 82.412L73.5668 82.3207C73.513 81.2174 72.5749 80.3639 71.4715 80.4143L71.5689 82.412ZM67.7844 82.5849L67.687 80.5873C67.0296 80.6173 66.4301 80.9688 66.0836 81.5272L67.7844 82.5849ZM71.9857 90.9604L71.8085 92.9517C72.3845 93.0047 72.9545 92.8059 73.3716 92.4067C73.7886 92.0074 74.0118 91.4467 73.9836 90.8691L71.9857 90.9604ZM63.0958 90.1427L61.395 89.0851C61.0297 89.6738 60.9964 90.4107 61.3069 91.032C61.6174 91.6534 62.2273 92.0705 62.9185 92.134L63.0958 90.1427ZM39.0804 109.073L65.4161 69.5232L62.0839 67.2999L35.7481 106.85L39.0804 109.073ZM54.6624 108.639L37.7179 105.986L37.1107 109.937L54.0552 112.59L54.6624 108.639ZM58.4471 100.687L52.6826 109.518L56.0349 111.711L61.7994 102.88L58.4471 100.687ZM69.9438 100.76L60.3171 99.7939L59.9294 103.773L69.5561 104.74L69.9438 100.76ZM72.4958 113.873L71.7458 102.623L67.7541 102.877L68.5041 114.127L72.4958 113.873ZM82.2512 113.361L70.7264 112.014L70.2736 115.986L81.7984 117.334L82.2512 113.361ZM77.5022 64.5931L80.027 115.441L84.0227 115.254L81.4978 64.4069L77.5022 64.5931ZM64.2378 70.3524L79.9878 66.4408L79.0122 62.5592L63.2622 66.4707L64.2378 70.3524ZM71.4715 80.4143L67.687 80.5873L67.8818 84.5825L71.6663 84.4096L71.4715 80.4143ZM73.9836 90.8691L73.5668 82.3207L69.571 82.5032L69.9878 91.0517L73.9836 90.8691ZM62.9185 92.134L71.8085 92.9517L72.163 88.9691L63.273 88.1514L62.9185 92.134ZM66.0836 81.5272L61.395 89.0851L64.7966 91.2004L69.4852 83.6426L66.0836 81.5272Z" fill="black"/>
<path fill-rule="evenodd" clip-rule="evenodd" d="M82.3517 118.882L91.3806 71.4437L106.349 69.6848L119.25 80.25L119.25 95.25L106.799 97.0803L117 106.5L110.25 114L104.25 122.25L82.3517 118.882ZM94.6708 107.984L94.6709 102L101.25 105.75L94.6708 107.984ZM100.556 81.5494L97.959 88.7566L106.697 88.3452L100.556 81.5494Z" fill="#FFF176"/>
<path d="M91.3806 71.4437L91.131 69.4595C90.2691 69.5607 89.5755 70.2056 89.4136 71.0559L91.3806 71.4437ZM82.3517 118.882L80.3847 118.494C80.283 119.029 80.4046 119.583 80.7212 120.029C81.0379 120.475 81.5222 120.774 82.0621 120.857L82.3517 118.882ZM106.349 69.6848L107.611 68.1444C107.187 67.7972 106.641 67.6369 106.099 67.7006L106.349 69.6848ZM119.25 80.25L121.252 80.2658C121.252 79.6643 120.98 79.0926 120.513 78.7096L119.25 80.25ZM119.25 95.25L119.557 97.2267C120.533 97.0833 121.252 96.2509 121.252 95.2658L119.25 95.25ZM106.799 97.0803L106.492 95.1037C105.732 95.2155 105.106 95.7528 104.883 96.4859C104.66 97.219 104.879 98.0182 105.446 98.5418L106.799 97.0803ZM117 106.5L118.494 107.842C119.223 107.032 119.16 105.783 118.353 105.039L117 106.5ZM110.25 114L108.756 112.658C108.71 112.709 108.667 112.763 108.626 112.818L110.25 114ZM104.25 122.25L103.96 124.225C104.699 124.338 105.437 124.033 105.874 123.432L104.25 122.25ZM94.6709 102L95.6534 100.267C95.0335 99.9137 94.2749 99.9138 93.6606 100.267C93.0464 100.621 92.6688 101.274 92.6688 101.984L94.6709 102ZM94.6708 107.984L92.6688 107.968C92.6688 108.615 92.9827 109.225 93.5111 109.604C94.0395 109.982 94.717 110.084 95.3292 109.876L94.6708 107.984ZM101.25 105.75L101.908 107.642C102.652 107.39 103.174 106.725 103.244 105.943C103.314 105.162 102.918 104.408 102.232 104.017L101.25 105.75ZM97.959 88.7566L96.0744 88.0674C95.8479 88.6959 95.9529 89.3984 96.3541 89.9383C96.7552 90.4782 97.3991 90.7838 98.0691 90.7523L97.959 88.7566ZM100.556 81.5494L102.038 80.2179C101.565 79.6949 100.854 79.4554 100.165 79.5869C99.4753 79.7185 98.9083 80.2018 98.6711 80.8603L100.556 81.5494ZM106.697 88.3452L106.807 90.3409C107.578 90.3046 108.256 89.8287 108.549 89.118C108.842 88.4072 108.698 87.5884 108.179 87.0137L106.697 88.3452ZM89.4136 71.0559L80.3847 118.494L84.3187 119.27L93.3476 71.8315L89.4136 71.0559ZM106.099 67.7006L91.131 69.4595L91.6303 73.428L106.598 71.6691L106.099 67.7006ZM120.513 78.7096L107.611 68.1444L105.086 71.2253L117.987 81.7904L120.513 78.7096ZM121.252 95.2658L121.252 80.2658L117.248 80.2342L117.248 95.2342L121.252 95.2658ZM107.106 99.057L119.557 97.2267L118.943 93.2734L106.492 95.1037L107.106 99.057ZM118.353 105.039L108.153 95.6189L105.446 98.5418L115.647 107.961L118.353 105.039ZM111.744 115.342L118.494 107.842L115.506 105.158L108.756 112.658L111.744 115.342ZM105.874 123.432L111.874 115.182L108.626 112.818L102.626 121.068L105.874 123.432ZM82.0621 120.857L103.96 124.225L104.54 120.275L82.6413 116.908L82.0621 120.857ZM92.6688 101.984L92.6688 107.968L96.6729 108L96.6729 102.016L92.6688 101.984ZM102.232 104.017L95.6534 100.267L93.6883 103.733L100.267 107.483L102.232 104.017ZM95.3292 109.876L101.908 107.642L100.592 103.858L94.0125 106.092L95.3292 109.876ZM99.8436 89.4457L102.44 82.2386L98.6711 80.8603L96.0744 88.0674L99.8436 89.4457ZM106.586 86.3495L97.8488 86.7609L98.0691 90.7523L106.807 90.3409L106.586 86.3495ZM99.0736 82.8809L105.214 89.6767L108.179 87.0137L102.038 80.2179L99.0736 82.8809Z" fill="black"/>
<path fill-rule="evenodd" clip-rule="evenodd" d="M119.878 93.0557L132.832 86.4665L143.595 89.4016L151.035 96.7724L148.545 118.305L137.399 125.668L125.919 126.193L113.731 112.185L119.878 93.0557ZM125.085 109.096L133.325 114.717L140.055 107.555L136.989 99.1278L128.284 102.096L125.085 109.096Z" fill="#FFF176"/>
<path d="M132.832 86.4665L133.353 84.5373C132.873 84.4066 132.363 84.4587 131.921 84.6836L132.832 86.4665ZM119.878 93.0557L118.967 91.2728C118.493 91.5136 118.136 91.9332 117.974 92.4388L119.878 93.0557ZM143.595 89.4016L145.001 87.9834C144.755 87.7396 144.45 87.5636 144.116 87.4725L143.595 89.4016ZM151.035 96.7724L153.022 97.0081C153.092 96.3976 152.878 95.7877 152.441 95.3542L151.035 96.7724ZM148.545 118.305L149.651 119.974C150.142 119.65 150.464 119.126 150.532 118.541L148.545 118.305ZM137.399 125.668L137.496 127.666C137.856 127.65 138.205 127.536 138.505 127.338L137.399 125.668ZM125.919 126.193L124.412 127.503C124.814 127.965 125.405 128.219 126.016 128.191L125.919 126.193ZM113.731 112.185L111.826 111.568C111.612 112.235 111.763 112.966 112.223 113.495L113.731 112.185ZM133.325 114.717L132.2 116.367C133.015 116.923 134.111 116.805 134.784 116.088L133.325 114.717ZM125.085 109.096L123.265 108.261C122.861 109.146 123.155 110.196 123.961 110.747L125.085 109.096ZM140.055 107.555L141.515 108.927C142.031 108.378 142.193 107.586 141.935 106.877L140.055 107.555ZM136.989 99.1278L138.869 98.4493C138.496 97.4235 137.37 96.8832 136.339 97.2349L136.989 99.1278ZM128.284 102.096L127.633 100.203C127.115 100.38 126.692 100.762 126.464 101.26L128.284 102.096ZM131.921 84.6836L118.967 91.2728L120.79 94.8385L133.743 88.2493L131.921 84.6836ZM144.116 87.4725L133.353 84.5373L132.311 88.3956L143.074 91.3307L144.116 87.4725ZM152.441 95.3542L145.001 87.9834L142.189 90.8198L149.629 98.1907L152.441 95.3542ZM150.532 118.541L153.022 97.0081L149.048 96.5368L146.558 118.069L150.532 118.541ZM138.505 127.338L149.651 119.974L147.438 116.636L136.292 123.999L138.505 127.338ZM126.016 128.191L137.496 127.666L137.301 123.671L125.822 124.195L126.016 128.191ZM112.223 113.495L124.412 127.503L127.427 124.883L115.238 110.875L112.223 113.495ZM117.974 92.4388L111.826 111.568L115.635 112.802L121.783 93.6726L117.974 92.4388ZM134.449 113.066L126.209 107.445L123.961 110.747L132.2 116.367L134.449 113.066ZM138.596 106.184L131.865 113.345L134.784 116.088L141.515 108.927L138.596 106.184ZM135.11 99.8062L138.176 108.234L141.935 106.877L138.869 98.4493L135.11 99.8062ZM128.935 103.989L137.64 101.021L136.339 97.2349L127.633 100.203L128.935 103.989ZM126.905 109.932L130.104 102.931L126.464 101.26L123.265 108.261L126.905 109.932Z" fill="black"/>
<path fill-rule="evenodd" clip-rule="evenodd" d="M188.474 113.833L180.031 126.368L168.542 129.026L157.76 125.936L148.604 104.833L154.968 92.4856L165.277 86.2796L183.97 93.1248L188.474 113.833ZM175.14 101.634L164.551 100.556L162.151 110.517L169.462 116.762L175.913 109.685L175.14 101.634Z" fill="#FFF176"/>
<path d="M180.031 126.368L180.523 128.289C181.019 128.174 181.45 127.88 181.729 127.466L180.031 126.368ZM188.474 113.833L190.172 114.931C190.466 114.496 190.568 113.962 190.456 113.448L188.474 113.833ZM168.542 129.026L167.993 130.919C168.333 131.016 168.692 131.026 169.034 130.947L168.542 129.026ZM157.76 125.936L155.895 126.684C156.135 127.238 156.619 127.659 157.211 127.828L157.76 125.936ZM148.604 104.833L146.791 103.929C146.526 104.443 146.507 105.047 146.739 105.582L148.604 104.833ZM154.968 92.4856L153.887 90.8028C153.574 90.9915 153.32 91.2609 153.155 91.5818L154.968 92.4856ZM165.277 86.2796L165.969 84.4332C165.38 84.2177 164.726 84.2781 164.196 84.5969L165.277 86.2796ZM183.97 93.1248L185.952 92.7394C185.806 92.0713 185.318 91.519 184.661 91.2783L183.97 93.1248ZM164.551 100.556L164.735 98.5933C163.729 98.4909 162.808 99.1261 162.578 100.082L164.551 100.556ZM175.14 101.634L177.157 101.475C177.066 100.528 176.296 99.7697 175.325 99.6708L175.14 101.634ZM162.151 110.517L160.179 110.043C160.007 110.755 160.257 111.507 160.827 111.994L162.151 110.517ZM169.462 116.762L168.137 118.239C168.979 118.958 170.25 118.888 170.984 118.083L169.462 116.762ZM175.913 109.685L177.435 111.006C177.803 110.603 177.982 110.068 177.93 109.526L175.913 109.685ZM181.729 127.466L190.172 114.931L186.776 112.736L178.333 125.27L181.729 127.466ZM169.034 130.947L180.523 128.289L179.539 124.447L168.05 127.105L169.034 130.947ZM157.211 127.828L167.993 130.919L169.091 127.133L158.308 124.043L157.211 127.828ZM146.739 105.582L155.895 126.684L159.624 125.187L150.468 104.085L146.739 105.582ZM153.155 91.5818L146.791 103.929L150.416 105.737L156.781 93.3894L153.155 91.5818ZM164.196 84.5969L153.887 90.8028L156.049 94.1684L166.358 87.9624L164.196 84.5969ZM184.661 91.2783L165.969 84.4332L164.586 88.1261L183.278 94.9712L184.661 91.2783ZM190.456 113.448L185.952 92.7394L181.988 93.5101L186.493 114.219L190.456 113.448ZM164.366 102.519L174.955 103.597L175.325 99.6708L164.735 98.5933L164.366 102.519ZM164.124 110.991L166.523 101.031L162.578 100.082L160.179 110.043L164.124 110.991ZM170.786 115.285L163.476 109.04L160.827 111.994L168.137 118.239L170.786 115.285ZM174.39 108.364L167.939 115.441L170.984 118.083L177.435 111.006L174.39 108.364ZM173.123 101.793L173.896 109.844L177.93 109.526L177.157 101.475L173.123 101.793Z" fill="black"/>
<path d="M197.698 88.6428L180.112 130.454L191.681 130.977L201.485 118.962L206.655 130.292L216.407 117.229L219.529 133.91L232.199 133.331L231.458 94.4604L223.242 91.6814L206.886 111.355L197.698 88.6428Z" fill="#FFF176" stroke="black" stroke-width="4" stroke-linejoin="round"/>
</svg>
