<svg width="160" height="130" viewBox="0 0 160 130" fill="none" xmlns="http://www.w3.org/2000/svg">
<path d="M38.987 66.0137L18.4806 30.2762L44.8767 34.2365L55.8941 14.0598L67.9559 39.9265L89.4131 17.4429L89.4245 44.1035L123.23 33.2196L118.018 53.0355L150.805 54.7614L129.297 74.2908L134.578 100.086L112.181 93.0991L99.8485 118.824L85.5914 93.318L66.7185 112.415L54.3656 90.1508L25.0439 90.2259L38.987 66.0137Z" fill="#FF7070" stroke="black" stroke-width="4" stroke-linejoin="round"/>
<path d="M7.71013 72.5635L12.5318 41.2202L19.8101 49.9753L27.6797 40.87L34.1669 44.5159L23.4843 56.705L32.6928 70.2768L24.1484 72.4721L18.579 63.2779L14.9992 72.4616L7.71013 72.5635Z" fill="#FFF176" stroke="black" stroke-width="4" stroke-linejoin="round"/>
<path fill-rule="evenodd" clip-rule="evenodd" d="M42.5 45.6077L24.9429 71.9745L36.2392 73.743L40.0822 67.8557L46.5 68.5L47 76L54.6832 76.8984L53 43L42.5 45.6077ZM45.1896 55.0566L47.7125 54.9413L47.9904 60.6403L42.0638 60.0952L45.1896 55.0566Z" fill="#FFF176"/>
<path d="M24.9429 71.9745L23.2767 70.8629C22.8989 71.4303 22.8373 72.152 23.1132 72.7771C23.3891 73.4023 23.9644 73.8445 24.6393 73.9502L24.9429 71.9745ZM42.5 45.6077L42.0122 43.6669C41.5295 43.7868 41.1093 44.0824 40.8339 44.4961L42.5 45.6077ZM36.2392 73.743L35.9356 75.7186C36.7121 75.8402 37.4866 75.4963 37.9153 74.8394L36.2392 73.743ZM40.0822 67.8557L40.276 65.866C39.5338 65.7915 38.813 66.1358 38.406 66.7593L40.0822 67.8557ZM46.5 68.5L48.4959 68.3731C48.4307 67.3964 47.6682 66.6081 46.6939 66.5103L46.5 68.5ZM47 76L45.0041 76.1269C45.0684 77.0913 45.8132 77.8739 46.7736 77.9862L47 76ZM54.6832 76.8984L54.4568 78.8845C55.0403 78.9527 55.6235 78.7613 56.0518 78.3609C56.4801 77.9606 56.7102 77.3917 56.6811 76.8053L54.6832 76.8984ZM53 43L54.9978 42.9069C54.9681 42.3087 54.6718 41.7545 54.1904 41.3966C53.709 41.0387 53.0931 40.9149 52.5122 41.0592L53 43ZM47.7125 54.9413L49.7104 54.85C49.6566 53.7468 48.7185 52.8933 47.6151 52.9437L47.7125 54.9413ZM45.1896 55.0566L45.0921 53.059C44.4347 53.089 43.8352 53.4405 43.4888 53.9989L45.1896 55.0566ZM47.9904 60.6403L47.8132 62.6316C48.3892 62.6846 48.9592 62.4858 49.3763 62.0865C49.7933 61.6872 50.0165 61.1265 49.9883 60.549L47.9904 60.6403ZM42.0638 60.0952L40.363 59.0375C39.9977 59.6262 39.9644 60.3631 40.2749 60.9845C40.5854 61.6058 41.1953 62.0229 41.8865 62.0865L42.0638 60.0952ZM26.609 73.0862L44.1661 46.7193L40.8339 44.4961L23.2767 70.8629L26.609 73.0862ZM36.5428 71.7674L25.2464 69.9989L24.6393 73.9502L35.9356 75.7186L36.5428 71.7674ZM38.406 66.7593L34.563 72.6466L37.9153 74.8394L41.7583 68.9521L38.406 66.7593ZM46.6939 66.5103L40.276 65.866L39.8883 69.8454L46.3061 70.4897L46.6939 66.5103ZM48.9959 75.8731L48.4959 68.3731L44.5041 68.6269L45.0041 76.1269L48.9959 75.8731ZM54.9096 74.9122L47.2264 74.0138L46.7736 77.9862L54.4568 78.8845L54.9096 74.9122ZM51.0022 43.0931L52.6854 76.9914L56.6811 76.8053L54.9978 42.9069L51.0022 43.0931ZM42.9878 47.5485L53.4878 44.9408L52.5122 41.0592L42.0122 43.6669L42.9878 47.5485ZM47.6151 52.9437L45.0921 53.059L45.287 57.0542L47.8099 56.9389L47.6151 52.9437ZM49.9883 60.549L49.7104 54.85L45.7146 55.0326L45.9925 60.7316L49.9883 60.549ZM41.8865 62.0865L47.8132 62.6316L48.1677 58.649L42.241 58.1039L41.8865 62.0865ZM43.4888 53.9989L40.363 59.0375L43.7646 61.1529L46.8903 56.1143L43.4888 53.9989Z" fill="black"/>
<path fill-rule="evenodd" clip-rule="evenodd" d="M54.9011 79.2548L60.9204 47.6291L70.899 46.4566L79.5 53.5L79.5 63.5L71.1996 64.7202L78 71L73.5 76L69.5 81.5L54.9011 79.2548ZM63.1139 71.9895L63.1139 68L67.5 70.5L63.1139 71.9895ZM67.0371 54.3663L65.306 59.1711L71.131 58.8968L67.0371 54.3663Z" fill="#FFF176"/>
<path d="M60.9204 47.6291L60.6708 45.6449C59.8089 45.7462 59.1153 46.391 58.9534 47.2413L60.9204 47.6291ZM54.9011 79.2548L52.9341 78.867C52.8325 79.4012 52.954 79.9554 53.2707 80.4013C53.5873 80.8473 54.0716 81.1464 54.6115 81.2294L54.9011 79.2548ZM70.899 46.4566L72.1617 44.9161C71.7378 44.5689 71.1914 44.4086 70.6494 44.4723L70.899 46.4566ZM79.5 53.5L81.5021 53.5158C81.5021 52.9143 81.2305 52.3426 80.7627 51.9596L79.5 53.5ZM79.5 63.5L79.8071 65.4766C80.7826 65.3333 81.5021 64.5009 81.5021 63.5158L79.5 63.5ZM71.1996 64.7202L70.8924 62.7436C70.1321 62.8553 69.5066 63.3927 69.2835 64.1258C69.0604 64.8589 69.2791 65.6581 69.8461 66.1817L71.1996 64.7202ZM78 71L79.4942 72.3415C80.2228 71.532 80.1601 70.2834 79.3535 69.5385L78 71ZM73.5 76L72.0058 74.6585C71.9599 74.7094 71.9168 74.7627 71.8765 74.8181L73.5 76ZM69.5 81.5L69.2104 83.4746C69.9491 83.5882 70.6866 83.2826 71.1235 82.6819L69.5 81.5ZM63.1139 68L64.0965 66.267C63.4766 65.9137 62.7179 65.9137 62.1037 66.2671C61.4894 66.6205 61.1119 67.2742 61.1119 67.9842L63.1139 68ZM63.1139 71.9895L61.1118 71.9736C61.1118 72.6205 61.4257 73.2299 61.9541 73.6088C62.4826 73.9877 63.1601 74.0893 63.7723 73.8814L63.1139 71.9895ZM67.5 70.5L68.1584 72.3919C68.9016 72.1396 69.4242 71.4749 69.4941 70.6932C69.564 69.9115 69.1682 69.1579 68.4825 68.767L67.5 70.5ZM65.306 59.1711L63.4214 58.4819C63.1949 59.1104 63.2999 59.8128 63.7011 60.3528C64.1022 60.8927 64.7461 61.1983 65.4161 61.1668L65.306 59.1711ZM67.0371 54.3663L68.5192 53.0348C68.0466 52.5118 67.3356 52.2722 66.6462 52.4038C65.9567 52.5353 65.3898 53.0187 65.1525 53.6771L67.0371 54.3663ZM71.131 58.8968L71.2411 60.8925C72.0123 60.8562 72.6903 60.3803 72.9833 59.6696C73.2764 58.9588 73.1323 58.14 72.6131 57.5653L71.131 58.8968ZM58.9534 47.2413L52.9341 78.867L56.8681 79.6426L62.8874 48.0169L58.9534 47.2413ZM70.6494 44.4723L60.6708 45.6449L61.1701 49.6134L71.1487 48.4408L70.6494 44.4723ZM80.7627 51.9596L72.1617 44.9161L69.6363 47.997L78.2373 55.0404L80.7627 51.9596ZM81.5021 63.5158L81.5021 53.5158L77.4979 53.4842L77.4979 63.4842L81.5021 63.5158ZM71.5067 66.6969L79.8071 65.4766L79.1929 61.5233L70.8924 62.7436L71.5067 66.6969ZM79.3535 69.5385L72.553 63.2588L69.8461 66.1817L76.6465 72.4614L79.3535 69.5385ZM74.9942 77.3415L79.4942 72.3415L76.5058 69.6585L72.0058 74.6585L74.9942 77.3415ZM71.1235 82.6819L75.1235 77.1819L71.8765 74.8181L67.8765 80.3181L71.1235 82.6819ZM54.6115 81.2294L69.2104 83.4746L69.7896 79.5254L55.1907 77.2803L54.6115 81.2294ZM61.1119 67.9842L61.1118 71.9736L65.116 72.0053L65.116 68.0158L61.1119 67.9842ZM68.4825 68.767L64.0965 66.267L62.1314 69.733L66.5174 72.233L68.4825 68.767ZM63.7723 73.8814L68.1584 72.3919L66.8416 68.608L62.4555 70.0975L63.7723 73.8814ZM67.1906 59.8602L68.9217 55.0554L65.1525 53.6771L63.4214 58.4819L67.1906 59.8602ZM71.0209 56.9011L65.1958 57.1753L65.4161 61.1668L71.2411 60.8925L71.0209 56.9011ZM65.5551 55.6978L69.649 60.2283L72.6131 57.5653L68.5192 53.0348L65.5551 55.6978Z" fill="black"/>
<path fill-rule="evenodd" clip-rule="evenodd" d="M79.9188 62.0371L88.5547 57.6443L95.7302 59.6011L100.69 64.515L99.0298 78.8701L91.5991 83.779L83.946 84.1287L75.8206 74.7901L79.9188 62.0371ZM83.3902 72.7307L88.883 76.4779L93.3703 71.7035L91.3263 66.0852L85.5227 68.0639L83.3902 72.7307Z" fill="#FFF176"/>
<path d="M88.5547 57.6443L89.0756 55.7152C88.596 55.5844 88.0855 55.6366 87.6433 55.8615L88.5547 57.6443ZM79.9188 62.0371L79.0074 60.2543C78.5341 60.4951 78.1767 60.9146 78.0142 61.4203L79.9188 62.0371ZM95.7302 59.6011L97.1361 58.1829C96.89 57.9391 96.5851 57.7631 96.2511 57.672L95.7302 59.6011ZM100.69 64.515L102.677 64.7506C102.748 64.1401 102.533 63.5302 102.096 63.0968L100.69 64.515ZM99.0298 78.8701L100.136 80.5394C100.627 80.2152 100.949 79.6906 101.017 79.1057L99.0298 78.8701ZM91.5991 83.779L91.6965 85.7766C92.0565 85.7602 92.4051 85.6467 92.7054 85.4483L91.5991 83.779ZM83.946 84.1287L82.4385 85.4385C82.8408 85.9008 83.4321 86.1543 84.0434 86.1263L83.946 84.1287ZM75.8206 74.7901L73.916 74.1732C73.7019 74.8396 73.8525 75.5705 74.3131 76.0999L75.8206 74.7901ZM88.883 76.4779L87.7589 78.1286C88.5734 78.6842 89.6695 78.5659 90.3427 77.8496L88.883 76.4779ZM83.3902 72.7307L81.5704 71.8952C81.1657 72.7809 81.4596 73.8312 82.2662 74.3814L83.3902 72.7307ZM93.3703 71.7035L94.83 73.0751C95.3455 72.5267 95.5078 71.7341 95.2498 71.0251L93.3703 71.7035ZM91.3263 66.0852L93.2059 65.4068C92.8326 64.3809 91.707 63.8406 90.6755 64.1923L91.3263 66.0852ZM85.5227 68.0639L84.8719 66.171C84.3532 66.3479 83.9305 66.7302 83.7028 67.2284L85.5227 68.0639ZM87.6433 55.8615L79.0074 60.2543L80.8302 63.82L89.4661 59.4272L87.6433 55.8615ZM96.2511 57.672L89.0756 55.7152L88.0338 59.5734L95.2092 61.5302L96.2511 57.672ZM102.096 63.0968L97.1361 58.1829L94.3243 61.0193L99.284 65.9332L102.096 63.0968ZM101.017 79.1057L102.677 64.7506L98.7028 64.2794L97.0427 78.6344L101.017 79.1057ZM92.7054 85.4483L100.136 80.5394L97.9235 77.2007L90.4927 82.1096L92.7054 85.4483ZM84.0434 86.1263L91.6965 85.7766L91.5017 81.7814L83.8486 82.1311L84.0434 86.1263ZM74.3131 76.0999L82.4385 85.4385L85.4535 82.8189L77.3281 73.4803L74.3131 76.0999ZM78.0142 61.4203L73.916 74.1732L77.7252 75.407L81.8234 62.654L78.0142 61.4203ZM90.0071 74.8272L84.5143 71.08L82.2662 74.3814L87.7589 78.1286L90.0071 74.8272ZM91.9105 70.3318L87.4233 75.1062L90.3427 77.8496L94.83 73.0751L91.9105 70.3318ZM89.4467 66.7636L91.4907 72.3819L95.2498 71.0251L93.2059 65.4068L89.4467 66.7636ZM86.1735 69.9568L91.9771 67.9781L90.6755 64.1923L84.8719 66.171L86.1735 69.9568ZM85.2101 73.5662L87.3426 68.8994L83.7028 67.2284L81.5704 71.8952L85.2101 73.5662Z" fill="black"/>
<path fill-rule="evenodd" clip-rule="evenodd" d="M125.65 75.889L120.021 84.2454L112.361 86.0172L105.173 83.957L99.069 69.8888L103.312 61.6571L110.185 57.5198L122.647 62.0832L125.65 75.889ZM116.76 67.7559L109.7 67.0375L108.101 73.678L112.975 77.8413L117.275 73.1234L116.76 67.7559Z" fill="#FFF176"/>
<path d="M120.021 84.2454L120.512 86.1661C121.009 86.0513 121.44 85.7573 121.719 85.3431L120.021 84.2454ZM125.65 75.889L127.348 76.9866C127.641 76.5511 127.743 76.0176 127.631 75.5036L125.65 75.889ZM112.361 86.0172L111.813 87.9102C112.152 88.0075 112.511 88.0171 112.853 87.9379L112.361 86.0172ZM105.173 83.957L103.309 84.7055C103.549 85.2595 104.033 85.6804 104.624 85.8499L105.173 83.957ZM99.069 69.8888L97.2562 68.9851C96.9914 69.4988 96.9725 70.1027 97.2045 70.6374L99.069 69.8888ZM103.312 61.6571L102.231 59.9743C101.918 60.1629 101.665 60.4324 101.499 60.7533L103.312 61.6571ZM110.185 57.5198L110.876 55.6733C110.288 55.4578 109.634 55.5182 109.104 55.837L110.185 57.5198ZM122.647 62.0832L124.628 61.6978C124.483 61.0297 123.995 60.4774 123.338 60.2367L122.647 62.0832ZM109.7 67.0375L109.885 65.0745C108.879 64.9721 107.958 65.6073 107.728 66.5632L109.7 67.0375ZM116.76 67.7559L118.777 67.5972C118.686 66.65 117.916 65.8917 116.945 65.7929L116.76 67.7559ZM108.101 73.678L106.128 73.2037C105.957 73.9162 106.206 74.6677 106.776 75.1547L108.101 73.678ZM112.975 77.8413L111.65 79.318C112.492 80.0373 113.763 79.9678 114.497 79.1625L112.975 77.8413ZM117.275 73.1234L118.798 74.4445C119.165 74.0412 119.344 73.5059 119.292 72.9647L117.275 73.1234ZM121.719 85.3431L127.348 76.9866L123.951 74.7913L118.322 83.1477L121.719 85.3431ZM112.853 87.9379L120.512 86.1661L119.529 82.3248L111.869 84.0966L112.853 87.9379ZM104.624 85.8499L111.813 87.9102L112.91 84.1243L105.722 82.0641L104.624 85.8499ZM97.2045 70.6374L103.309 84.7055L107.038 83.2085L100.934 69.1403L97.2045 70.6374ZM101.499 60.7533L97.2562 68.9851L100.882 70.7926L105.125 62.5608L101.499 60.7533ZM109.104 55.837L102.231 59.9743L104.393 63.3398L111.266 59.2025L109.104 55.837ZM123.338 60.2367L110.876 55.6733L109.494 59.3662L121.955 63.9296L123.338 60.2367ZM127.631 75.5036L124.628 61.6978L120.665 62.4685L123.668 76.2743L127.631 75.5036ZM109.516 69.0006L116.575 69.7189L116.945 65.7929L109.885 65.0745L109.516 69.0006ZM110.074 74.1523L111.673 67.5118L107.728 66.5632L106.128 73.2037L110.074 74.1523ZM114.299 76.3646L109.426 72.2013L106.776 75.1547L111.65 79.318L114.299 76.3646ZM115.753 71.8022L111.452 76.5202L114.497 79.1625L118.798 74.4445L115.753 71.8022ZM114.743 67.9146L115.258 73.2821L119.292 72.9647L118.777 67.5972L114.743 67.9146Z" fill="black"/>
<path d="M131.799 59.0952L120.075 86.9691L127.788 87.3177L134.323 79.3082L137.77 86.8615L144.271 78.1527L146.353 89.2732L154.799 88.8873L154.305 62.9736L148.828 61.1209L137.924 74.2368L131.799 59.0952Z" fill="#FFF176" stroke="black" stroke-width="4" stroke-linejoin="round"/>
</svg>
