<svg width="235" height="82" viewBox="0 0 235 82" fill="none" xmlns="http://www.w3.org/2000/svg">
<path d="M11.5652 54.8453L18.7978 7.83028L29.7152 20.963L41.5195 7.30505L51.2504 12.7738L35.2265 31.0576L49.0392 51.4153L36.2226 54.7082L27.8685 40.9169L22.4988 54.6925L11.5652 54.8453Z" fill="#FFF176" stroke="black" stroke-width="4" stroke-linejoin="round"/>
<path fill-rule="evenodd" clip-rule="evenodd" d="M63.75 14.4115L37.4143 53.9618L54.3588 56.6145L60.1232 47.7836L69.75 48.75L70.5 60L82.0248 61.3475L79.5 10.5L63.75 14.4115ZM67.7844 28.5849L71.5689 28.412L71.9857 36.9604L63.0958 36.1427L67.7844 28.5849Z" fill="#FFF176"/>
<path d="M37.4143 53.9618L35.7481 52.8502C35.3703 53.4176 35.3087 54.1392 35.5846 54.7644C35.8605 55.3895 36.4359 55.8318 37.1107 55.9374L37.4143 53.9618ZM63.75 14.4115L63.2622 12.4707C62.7794 12.5906 62.3593 12.8863 62.0839 13.2999L63.75 14.4115ZM54.3588 56.6145L54.0552 58.5901C54.8317 58.7117 55.6062 58.3678 56.0349 57.7109L54.3588 56.6145ZM60.1232 47.7836L60.3171 45.7939C59.5749 45.7194 58.8541 46.0637 58.4471 46.6872L60.1232 47.7836ZM69.75 48.75L71.7458 48.6231C71.6807 47.6463 70.9182 46.8581 69.9438 46.7603L69.75 48.75ZM70.5 60L68.5041 60.1269C68.5684 61.0913 69.3132 61.8739 70.2736 61.9862L70.5 60ZM82.0248 61.3475L81.7984 63.3337C82.3819 63.4019 82.9651 63.2105 83.3934 62.8101C83.8217 62.4097 84.0518 61.8409 84.0227 61.2545L82.0248 61.3475ZM79.5 10.5L81.4978 10.4069C81.4681 9.80869 81.1718 9.25445 80.6904 8.89658C80.209 8.53872 79.5931 8.4149 79.0122 8.55919L79.5 10.5ZM71.5689 28.412L73.5668 28.3207C73.513 27.2174 72.5749 26.3639 71.4715 26.4143L71.5689 28.412ZM67.7844 28.5849L67.687 26.5873C67.0296 26.6173 66.4301 26.9688 66.0836 27.5272L67.7844 28.5849ZM71.9857 36.9604L71.8085 38.9517C72.3845 39.0047 72.9545 38.8059 73.3716 38.4067C73.7886 38.0074 74.0118 37.4467 73.9836 36.8691L71.9857 36.9604ZM63.0958 36.1427L61.395 35.0851C61.0297 35.6738 60.9964 36.4107 61.3069 37.032C61.6174 37.6534 62.2273 38.0705 62.9185 38.134L63.0958 36.1427ZM39.0804 55.0734L65.4161 15.5232L62.0839 13.2999L35.7481 52.8502L39.0804 55.0734ZM54.6624 54.6389L37.7179 51.9862L37.1107 55.9374L54.0552 58.5901L54.6624 54.6389ZM58.4471 46.6872L52.6826 55.5181L56.0349 57.7109L61.7994 48.88L58.4471 46.6872ZM69.9438 46.7603L60.3171 45.7939L59.9294 49.7733L69.5561 50.7397L69.9438 46.7603ZM72.4958 59.8731L71.7458 48.6231L67.7541 48.8769L68.5041 60.1269L72.4958 59.8731ZM82.2512 59.3614L70.7264 58.0138L70.2736 61.9862L81.7984 63.3337L82.2512 59.3614ZM77.5022 10.5931L80.027 61.4406L84.0227 61.2545L81.4978 10.4069L77.5022 10.5931ZM64.2378 16.3524L79.9878 12.4408L79.0122 8.55919L63.2622 12.4707L64.2378 16.3524ZM71.4715 26.4143L67.687 26.5873L67.8818 30.5825L71.6663 30.4096L71.4715 26.4143ZM73.9836 36.8691L73.5668 28.3207L69.571 28.5032L69.9878 37.0517L73.9836 36.8691ZM62.9185 38.134L71.8085 38.9517L72.163 34.9691L63.273 34.1514L62.9185 38.134ZM66.0836 27.5272L61.395 35.0851L64.7966 37.2004L69.4852 29.6426L66.0836 27.5272Z" fill="black"/>
<path fill-rule="evenodd" clip-rule="evenodd" d="M82.3517 64.8823L91.3806 17.4437L106.349 15.6848L119.25 26.25L119.25 41.25L106.799 43.0803L117 52.5L110.25 60L104.25 68.25L82.3517 64.8823ZM94.6708 53.9842L94.6709 48L101.25 51.75L94.6708 53.9842ZM100.556 27.5494L97.959 34.7566L106.697 34.3452L100.556 27.5494Z" fill="#FFF176"/>
<path d="M91.3806 17.4437L91.131 15.4595C90.2691 15.5607 89.5755 16.2056 89.4136 17.0559L91.3806 17.4437ZM82.3517 64.8823L80.3847 64.4945C80.283 65.0287 80.4046 65.5828 80.7212 66.0288C81.0379 66.4747 81.5222 66.7738 82.0621 66.8568L82.3517 64.8823ZM106.349 15.6848L107.611 14.1444C107.187 13.7972 106.641 13.6369 106.099 13.7006L106.349 15.6848ZM119.25 26.25L121.252 26.2658C121.252 25.6643 120.98 25.0926 120.513 24.7096L119.25 26.25ZM119.25 41.25L119.557 43.2267C120.533 43.0833 121.252 42.2509 121.252 41.2658L119.25 41.25ZM106.799 43.0803L106.492 41.1037C105.732 41.2155 105.106 41.7528 104.883 42.4859C104.66 43.219 104.879 44.0182 105.446 44.5418L106.799 43.0803ZM117 52.5L118.494 53.8415C119.223 53.032 119.16 51.7834 118.353 51.0385L117 52.5ZM110.25 60L108.756 58.6585C108.71 58.7094 108.667 58.7627 108.626 58.8181L110.25 60ZM104.25 68.25L103.96 70.2246C104.699 70.3382 105.437 70.0326 105.874 69.4319L104.25 68.25ZM94.6709 48L95.6534 46.267C95.0335 45.9137 94.2749 45.9138 93.6606 46.2672C93.0464 46.6205 92.6688 47.2742 92.6688 47.9842L94.6709 48ZM94.6708 53.9842L92.6688 53.9684C92.6688 54.6153 92.9827 55.2246 93.5111 55.6035C94.0395 55.9824 94.717 56.084 95.3292 55.8761L94.6708 53.9842ZM101.25 51.75L101.908 53.6419C102.652 53.3896 103.174 52.7249 103.244 51.9432C103.314 51.1615 102.918 50.4079 102.232 50.017L101.25 51.75ZM97.959 34.7566L96.0744 34.0674C95.8479 34.6959 95.9529 35.3984 96.3541 35.9383C96.7552 36.4782 97.3991 36.7838 98.0691 36.7523L97.959 34.7566ZM100.556 27.5494L102.038 26.2179C101.565 25.6949 100.854 25.4554 100.165 25.5869C99.4753 25.7185 98.9083 26.2018 98.6711 26.8603L100.556 27.5494ZM106.697 34.3452L106.807 36.3409C107.578 36.3046 108.256 35.8287 108.549 35.118C108.842 34.4072 108.698 33.5884 108.179 33.0137L106.697 34.3452ZM89.4136 17.0559L80.3847 64.4945L84.3187 65.2701L93.3476 17.8315L89.4136 17.0559ZM106.099 13.7006L91.131 15.4595L91.6303 19.428L106.598 17.6691L106.099 13.7006ZM120.513 24.7096L107.611 14.1444L105.086 17.2253L117.987 27.7904L120.513 24.7096ZM121.252 41.2658L121.252 26.2658L117.248 26.2342L117.248 41.2342L121.252 41.2658ZM107.106 45.057L119.557 43.2267L118.943 39.2734L106.492 41.1037L107.106 45.057ZM118.353 51.0385L108.153 41.6189L105.446 44.5418L115.647 53.9614L118.353 51.0385ZM111.744 61.3415L118.494 53.8415L115.506 51.1585L108.756 58.6585L111.744 61.3415ZM105.874 69.4319L111.874 61.1819L108.626 58.8181L102.626 67.0681L105.874 69.4319ZM82.0621 66.8568L103.96 70.2246L104.54 66.2754L82.6413 62.9077L82.0621 66.8568ZM92.6688 47.9842L92.6688 53.9684L96.6729 54L96.6729 48.0158L92.6688 47.9842ZM102.232 50.017L95.6534 46.267L93.6883 49.733L100.267 53.4829L102.232 50.017ZM95.3292 55.8761L101.908 53.6419L100.592 49.858L94.0125 52.0922L95.3292 55.8761ZM99.8436 35.4457L102.44 28.2386L98.6711 26.8603L96.0744 34.0674L99.8436 35.4457ZM106.586 32.3495L97.8488 32.7609L98.0691 36.7523L106.807 36.3409L106.586 32.3495ZM99.0736 28.8809L105.214 35.6767L108.179 33.0137L102.038 26.2179L99.0736 28.8809Z" fill="black"/>
<path fill-rule="evenodd" clip-rule="evenodd" d="M119.878 39.0557L132.832 32.4665L143.595 35.4016L151.035 42.7724L148.545 64.3051L137.399 71.6684L125.919 72.193L113.731 58.1852L119.878 39.0557ZM125.085 55.096L133.325 60.7168L140.055 53.5552L136.989 45.1278L128.284 48.0959L125.085 55.096Z" fill="#FFF176"/>
<path d="M132.832 32.4665L133.353 30.5373C132.873 30.4066 132.363 30.4587 131.921 30.6836L132.832 32.4665ZM119.878 39.0557L118.967 37.2728C118.493 37.5136 118.136 37.9332 117.974 38.4388L119.878 39.0557ZM143.595 35.4016L145.001 33.9834C144.755 33.7396 144.45 33.5636 144.116 33.4725L143.595 35.4016ZM151.035 42.7724L153.022 43.0081C153.092 42.3976 152.878 41.7877 152.441 41.3542L151.035 42.7724ZM148.545 64.3051L149.651 65.9744C150.142 65.6502 150.464 65.1256 150.532 64.5407L148.545 64.3051ZM137.399 71.6684L137.496 73.6661C137.856 73.6496 138.205 73.5362 138.505 73.3378L137.399 71.6684ZM125.919 72.193L124.412 73.5028C124.814 73.9652 125.405 74.2186 126.016 74.1906L125.919 72.193ZM113.731 58.1852L111.826 57.5683C111.612 58.2347 111.763 58.9656 112.223 59.495L113.731 58.1852ZM133.325 60.7168L132.2 62.3675C133.015 62.9231 134.111 62.8048 134.784 62.0885L133.325 60.7168ZM125.085 55.096L123.265 54.2606C122.861 55.1462 123.155 56.1965 123.961 56.7467L125.085 55.096ZM140.055 53.5552L141.515 54.9269C142.031 54.3784 142.193 53.5858 141.935 52.8768L140.055 53.5552ZM136.989 45.1278L138.869 44.4493C138.496 43.4235 137.37 42.8832 136.339 43.2349L136.989 45.1278ZM128.284 48.0959L127.633 46.203C127.115 46.3798 126.692 46.7621 126.464 47.2604L128.284 48.0959ZM131.921 30.6836L118.967 37.2728L120.79 40.8385L133.743 34.2493L131.921 30.6836ZM144.116 33.4725L133.353 30.5373L132.311 34.3956L143.074 37.3307L144.116 33.4725ZM152.441 41.3542L145.001 33.9834L142.189 36.8198L149.629 44.1907L152.441 41.3542ZM150.532 64.5407L153.022 43.0081L149.048 42.5368L146.558 64.0694L150.532 64.5407ZM138.505 73.3378L149.651 65.9744L147.438 62.6357L136.292 69.9991L138.505 73.3378ZM126.016 74.1906L137.496 73.6661L137.301 69.6708L125.822 70.1954L126.016 74.1906ZM112.223 59.495L124.412 73.5028L127.427 70.8832L115.238 56.8754L112.223 59.495ZM117.974 38.4388L111.826 57.5683L115.635 58.8021L121.783 39.6726L117.974 38.4388ZM134.449 59.0661L126.209 53.4454L123.961 56.7467L132.2 62.3675L134.449 59.0661ZM138.596 52.1836L131.865 59.3452L134.784 62.0885L141.515 54.9269L138.596 52.1836ZM135.11 45.8062L138.176 54.2337L141.935 52.8768L138.869 44.4493L135.11 45.8062ZM128.935 49.9887L137.64 47.0207L136.339 43.2349L127.633 46.203L128.935 49.9887ZM126.905 55.9315L130.104 48.9313L126.464 47.2604L123.265 54.2606L126.905 55.9315Z" fill="black"/>
<path fill-rule="evenodd" clip-rule="evenodd" d="M188.474 59.8334L180.031 72.3681L168.542 75.0259L157.76 71.9355L148.604 50.8332L154.968 38.4856L165.277 32.2796L183.97 39.1248L188.474 59.8334ZM175.14 47.6339L164.551 46.5563L162.151 56.517L169.462 62.762L175.913 55.6851L175.14 47.6339Z" fill="#FFF176"/>
<path d="M180.031 72.3681L180.523 74.2888C181.019 74.174 181.45 73.88 181.729 73.4658L180.031 72.3681ZM188.474 59.8334L190.172 60.9311C190.466 60.4956 190.568 59.9621 190.456 59.4481L188.474 59.8334ZM168.542 75.0259L167.993 76.9188C168.333 77.0161 168.692 77.0257 169.034 76.9465L168.542 75.0259ZM157.76 71.9355L155.895 72.6841C156.135 73.238 156.619 73.6589 157.211 73.8285L157.76 71.9355ZM148.604 50.8332L146.791 49.9295C146.526 50.4432 146.507 51.0471 146.739 51.5818L148.604 50.8332ZM154.968 38.4856L153.887 36.8028C153.574 36.9915 153.32 37.2609 153.155 37.5818L154.968 38.4856ZM165.277 32.2796L165.969 30.4332C165.38 30.2177 164.726 30.2781 164.196 30.5969L165.277 32.2796ZM183.97 39.1248L185.952 38.7394C185.806 38.0713 185.318 37.519 184.661 37.2783L183.97 39.1248ZM164.551 46.5563L164.735 44.5933C163.729 44.4909 162.808 45.1261 162.578 46.082L164.551 46.5563ZM175.14 47.6339L177.157 47.4752C177.066 46.528 176.296 45.7697 175.325 45.6708L175.14 47.6339ZM162.151 56.517L160.179 56.0428C160.007 56.7553 160.257 57.5068 160.827 57.9938L162.151 56.517ZM169.462 62.762L168.137 64.2387C168.979 64.9579 170.25 64.8885 170.984 64.0832L169.462 62.762ZM175.913 55.6851L177.435 57.0062C177.803 56.6029 177.982 56.0676 177.93 55.5264L175.913 55.6851ZM181.729 73.4658L190.172 60.9311L186.776 58.7358L178.333 71.2704L181.729 73.4658ZM169.034 76.9465L180.523 74.2888L179.539 70.4475L168.05 73.1052L169.034 76.9465ZM157.211 73.8285L167.993 76.9188L169.091 73.1329L158.308 70.0426L157.211 73.8285ZM146.739 51.5818L155.895 72.6841L159.624 71.187L150.468 50.0847L146.739 51.5818ZM153.155 37.5818L146.791 49.9295L150.416 51.737L156.781 39.3894L153.155 37.5818ZM164.196 30.5969L153.887 36.8028L156.049 40.1684L166.358 33.9624L164.196 30.5969ZM184.661 37.2783L165.969 30.4332L164.586 34.1261L183.278 40.9712L184.661 37.2783ZM190.456 59.4481L185.952 38.7394L181.988 39.5101L186.493 60.2188L190.456 59.4481ZM164.366 48.5193L174.955 49.5969L175.325 45.6708L164.735 44.5933L164.366 48.5193ZM164.124 56.9913L166.523 47.0306L162.578 46.082L160.179 56.0428L164.124 56.9913ZM170.786 61.2853L163.476 55.0403L160.827 57.9938L168.137 64.2387L170.786 61.2853ZM174.39 54.3639L167.939 61.4408L170.984 64.0832L177.435 57.0062L174.39 54.3639ZM173.123 47.7925L173.896 55.8438L177.93 55.5264L177.157 47.4752L173.123 47.7925Z" fill="black"/>
<path d="M197.698 34.6428L180.112 76.4538L191.681 76.9766L201.485 64.9624L206.655 76.2923L216.407 63.229L219.529 79.9099L232.199 79.3309L231.458 40.4604L223.242 37.6814L206.886 57.3553L197.698 34.6428Z" fill="#FFF176" stroke="black" stroke-width="4" stroke-linejoin="round"/>
</svg>
